<?xml version="1.0" encoding="UTF-8" standalone="no"?>
<!DOCTYPE svg PUBLIC "-//W3C//DTD SVG 1.1//EN"
 "http://www.w3.org/Graphics/SVG/1.1/DTD/svg11.dtd">
<!-- Generated by graphviz version 2.42.4 (0)
 -->
<!-- Title: G Pages: 1 -->
<svg width="1345pt" height="293pt"
 viewBox="0.00 0.00 1345.10 292.60" xmlns="http://www.w3.org/2000/svg" xmlns:xlink="http://www.w3.org/1999/xlink">
<g id="graph0" class="graph" transform="scale(1 1) rotate(0) translate(28.8 263.8)">
<title>G</title>
<polygon fill="white" stroke="transparent" points="-28.8,28.8 -28.8,-263.8 1316.3,-263.8 1316.3,28.8 -28.8,28.8"/>
<!-- Controller -->
<g id="node1" class="node">
<title>Controller</title>
<path fill="#e8f1fa" stroke="#2f4f6f" d="M293,-28C293,-28 448,-28 448,-28 454,-28 460,-34 460,-40 460,-40 460,-65 460,-65 460,-71 454,-77 448,-77 448,-77 293,-77 293,-77 287,-77 281,-71 281,-65 281,-65 281,-40 281,-40 281,-34 287,-28 293,-28"/>
<text text-anchor="middle" x="370.5" y="-65" font-family="Arial" font-size="10.00">Controller</text>
<polyline fill="none" stroke="#2f4f6f" points="281,-58 460,-58 "/>
<text text-anchor="start" x="289" y="-46" font-family="Arial" font-size="10.00"># view(view:string, dados:array): void</text>
<text text-anchor="start" x="289" y="-35" font-family="Arial" font-size="10.00"># redirecionar(rota:string): void</text>
</g>
<!-- SessaoRepositorio -->
<g id="node2" class="node">
<title>SessaoRepositorio</title>
<path fill="#eaf7ea" stroke="#2f4f6f" d="M806.5,-0.5C806.5,-0.5 1040.5,-0.5 1040.5,-0.5 1046.5,-0.5 1052.5,-6.5 1052.5,-12.5 1052.5,-12.5 1052.5,-92.5 1052.5,-92.5 1052.5,-98.5 1046.5,-104.5 1040.5,-104.5 1040.5,-104.5 806.5,-104.5 806.5,-104.5 800.5,-104.5 794.5,-98.5 794.5,-92.5 794.5,-92.5 794.5,-12.5 794.5,-12.5 794.5,-6.5 800.5,-0.5 806.5,-0.5"/>
<text text-anchor="middle" x="923.5" y="-92.5" font-family="Arial" font-size="10.00">SessaoRepositorio</text>
<polyline fill="none" stroke="#2f4f6f" points="794.5,-85.5 1052.5,-85.5 "/>
<text text-anchor="start" x="802.5" y="-73.5" font-family="Arial" font-size="10.00">+ iniciar(): void</text>
<text text-anchor="start" x="802.5" y="-62.5" font-family="Arial" font-size="10.00">+ listar(tabela:string): array</text>
<text text-anchor="start" x="802.5" y="-51.5" font-family="Arial" font-size="10.00">+ buscarPorId(tabela:string, id:int): ?array</text>
<text text-anchor="start" x="802.5" y="-40.5" font-family="Arial" font-size="10.00">+ salvar(tabela:string, dados:array): void</text>
<text text-anchor="start" x="802.5" y="-29.5" font-family="Arial" font-size="10.00">+ atualizar(tabela:string, id:int, novosDados:array): void</text>
<text text-anchor="start" x="802.5" y="-18.5" font-family="Arial" font-size="10.00">+ excluir(tabela:string, id:int): void</text>
<text text-anchor="start" x="802.5" y="-7.5" font-family="Arial" font-size="10.00">&#45; proximoId(tabela:string): int</text>
</g>
<!-- ColaboradorController -->
<g id="node3" class="node">
<title>ColaboradorController</title>
<path fill="#f7f9fc" stroke="#2f4f6f" d="M812,-163.5C812,-163.5 899,-163.5 899,-163.5 905,-163.5 911,-169.5 911,-175.5 911,-175.5 911,-222.5 911,-222.5 911,-228.5 905,-234.5 899,-234.5 899,-234.5 812,-234.5 812,-234.5 806,-234.5 800,-228.5 800,-222.5 800,-222.5 800,-175.5 800,-175.5 800,-169.5 806,-163.5 812,-163.5"/>
<text text-anchor="middle" x="855.5" y="-222.5" font-family="Arial" font-size="10.00">ColaboradorController</text>
<polyline fill="none" stroke="#2f4f6f" points="800,-215.5 911,-215.5 "/>
<text text-anchor="start" x="808" y="-203.5" font-family="Arial" font-size="10.00">+ index(): void</text>
<text text-anchor="start" x="808" y="-192.5" font-family="Arial" font-size="10.00">+ criar(): void</text>
<text text-anchor="start" x="808" y="-181.5" font-family="Arial" font-size="10.00">+ salvar(): void</text>
<text text-anchor="start" x="808" y="-170.5" font-family="Arial" font-size="10.00">+ excluir(): void</text>
</g>
<!-- ColaboradorController&#45;&gt;Controller -->
<g id="edge1" class="edge">
<title>ColaboradorController&#45;&gt;Controller</title>
<path fill="none" stroke="#444444" d="M799.99,-199C789.24,-199 781.25,-199 781.25,-199 781.25,-199 781.25,-40 781.25,-40 781.25,-40 467.13,-40 467.13,-40"/>
<polygon fill="none" stroke="#444444" points="467.13,-37.55 460.13,-40 467.13,-42.45 467.13,-37.55"/>
<text text-anchor="middle" x="492" y="-131.8" font-family="Arial" font-size="9.00">extends</text>
</g>
<!-- ColaboradorController&#45;&gt;SessaoRepositorio -->
<g id="edge11" class="edge">
<title>ColaboradorController&#45;&gt;SessaoRepositorio</title>
<path fill="none" stroke="#444444" stroke-dasharray="5,2" d="M855.5,-163.16C855.5,-163.16 855.5,-111.58 855.5,-111.58"/>
<polygon fill="#444444" stroke="#444444" points="857.95,-111.58 855.5,-104.58 853.05,-111.58 857.95,-111.58"/>
<text text-anchor="middle" x="1011.5" y="-131.8" font-family="Arial" font-size="9.00">usa</text>
</g>
<!-- SetorController -->
<g id="node4" class="node">
<title>SetorController</title>
<path fill="#f7f9fc" stroke="#2f4f6f" d="M955.5,-163.5C955.5,-163.5 1015.5,-163.5 1015.5,-163.5 1021.5,-163.5 1027.5,-169.5 1027.5,-175.5 1027.5,-175.5 1027.5,-222.5 1027.5,-222.5 1027.5,-228.5 1021.5,-234.5 1015.5,-234.5 1015.5,-234.5 955.5,-234.5 955.5,-234.5 949.5,-234.5 943.5,-228.5 943.5,-222.5 943.5,-222.5 943.5,-175.5 943.5,-175.5 943.5,-169.5 949.5,-163.5 955.5,-163.5"/>
<text text-anchor="middle" x="985.5" y="-222.5" font-family="Arial" font-size="10.00">SetorController</text>
<polyline fill="none" stroke="#2f4f6f" points="943.5,-215.5 1027.5,-215.5 "/>
<text text-anchor="start" x="951.5" y="-203.5" font-family="Arial" font-size="10.00">+ index(): void</text>
<text text-anchor="start" x="951.5" y="-192.5" font-family="Arial" font-size="10.00">+ criar(): void</text>
<text text-anchor="start" x="951.5" y="-181.5" font-family="Arial" font-size="10.00">+ salvar(): void</text>
<text text-anchor="start" x="951.5" y="-170.5" font-family="Arial" font-size="10.00">+ excluir(): void</text>
</g>
<!-- SetorController&#45;&gt;Controller -->
<g id="edge2" class="edge">
<title>SetorController&#45;&gt;Controller</title>
<path fill="none" stroke="#444444" d="M971.5,-163.3C971.5,-154.73 971.5,-148 971.5,-148 971.5,-148 436.9,-148 436.9,-148 436.9,-148 436.9,-84.09 436.9,-84.09"/>
<polygon fill="none" stroke="#444444" points="439.35,-84.09 436.9,-77.09 434.45,-84.09 439.35,-84.09"/>
<text text-anchor="middle" x="562" y="-131.8" font-family="Arial" font-size="9.00">extends</text>
</g>
<!-- SetorController&#45;&gt;SessaoRepositorio -->
<g id="edge12" class="edge">
<title>SetorController&#45;&gt;SessaoRepositorio</title>
<path fill="none" stroke="#444444" stroke-dasharray="5,2" d="M999.5,-163.16C999.5,-163.16 999.5,-111.58 999.5,-111.58"/>
<polygon fill="#444444" stroke="#444444" points="1001.95,-111.58 999.5,-104.58 997.05,-111.58 1001.95,-111.58"/>
<text text-anchor="middle" x="1064.5" y="-131.8" font-family="Arial" font-size="9.00">usa</text>
</g>
<!-- CargoController -->
<g id="node5" class="node">
<title>CargoController</title>
<path fill="#f7f9fc" stroke="#2f4f6f" d="M550,-163.5C550,-163.5 611,-163.5 611,-163.5 617,-163.5 623,-169.5 623,-175.5 623,-175.5 623,-222.5 623,-222.5 623,-228.5 617,-234.5 611,-234.5 611,-234.5 550,-234.5 550,-234.5 544,-234.5 538,-228.5 538,-222.5 538,-222.5 538,-175.5 538,-175.5 538,-169.5 544,-163.5 550,-163.5"/>
<text text-anchor="middle" x="580.5" y="-222.5" font-family="Arial" font-size="10.00">CargoController</text>
<polyline fill="none" stroke="#2f4f6f" points="538,-215.5 623,-215.5 "/>
<text text-anchor="start" x="546" y="-203.5" font-family="Arial" font-size="10.00">+ index(): void</text>
<text text-anchor="start" x="546" y="-192.5" font-family="Arial" font-size="10.00">+ criar(): void</text>
<text text-anchor="start" x="546" y="-181.5" font-family="Arial" font-size="10.00">+ salvar(): void</text>
<text text-anchor="start" x="546" y="-170.5" font-family="Arial" font-size="10.00">+ excluir(): void</text>
</g>
<!-- CargoController&#45;&gt;Controller -->
<g id="edge3" class="edge">
<title>CargoController&#45;&gt;Controller</title>
<path fill="none" stroke="#444444" d="M566.33,-163.44C566.33,-123.74 566.33,-65 566.33,-65 566.33,-65 467.11,-65 467.11,-65"/>
<polygon fill="none" stroke="#444444" points="467.11,-62.55 460.11,-65 467.11,-67.45 467.11,-62.55"/>
<text text-anchor="middle" x="352" y="-131.8" font-family="Arial" font-size="9.00">extends</text>
</g>
<!-- CargoController&#45;&gt;SessaoRepositorio -->
<g id="edge13" class="edge">
<title>CargoController&#45;&gt;SessaoRepositorio</title>
<path fill="none" stroke="#444444" stroke-dasharray="5,2" d="M594.67,-163.33C594.67,-133.91 594.67,-97 594.67,-97 594.67,-97 787.48,-97 787.48,-97"/>
<polygon fill="#444444" stroke="#444444" points="787.48,-99.45 794.48,-97 787.48,-94.55 787.48,-99.45"/>
<text text-anchor="middle" x="905.5" y="-131.8" font-family="Arial" font-size="9.00">usa</text>
</g>
<!-- EpiController -->
<g id="node6" class="node">
<title>EpiController</title>
<path fill="#f7f9fc" stroke="#2f4f6f" d="M433.5,-163.5C433.5,-163.5 493.5,-163.5 493.5,-163.5 499.5,-163.5 505.5,-169.5 505.5,-175.5 505.5,-175.5 505.5,-222.5 505.5,-222.5 505.5,-228.5 499.5,-234.5 493.5,-234.5 493.5,-234.5 433.5,-234.5 433.5,-234.5 427.5,-234.5 421.5,-228.5 421.5,-222.5 421.5,-222.5 421.5,-175.5 421.5,-175.5 421.5,-169.5 427.5,-163.5 433.5,-163.5"/>
<text text-anchor="middle" x="463.5" y="-222.5" font-family="Arial" font-size="10.00">EpiController</text>
<polyline fill="none" stroke="#2f4f6f" points="421.5,-215.5 505.5,-215.5 "/>
<text text-anchor="start" x="429.5" y="-203.5" font-family="Arial" font-size="10.00">+ index(): void</text>
<text text-anchor="start" x="429.5" y="-192.5" font-family="Arial" font-size="10.00">+ criar(): void</text>
<text text-anchor="start" x="429.5" y="-181.5" font-family="Arial" font-size="10.00">+ salvar(): void</text>
<text text-anchor="start" x="429.5" y="-170.5" font-family="Arial" font-size="10.00">+ excluir(): void</text>
</g>
<!-- EpiController&#45;&gt;Controller -->
<g id="edge4" class="edge">
<title>EpiController&#45;&gt;Controller</title>
<path fill="none" stroke="#444444" d="M429.2,-163.16C429.2,-163.16 429.2,-84.42 429.2,-84.42"/>
<polygon fill="none" stroke="#444444" points="431.65,-84.42 429.2,-77.42 426.75,-84.42 431.65,-84.42"/>
<text text-anchor="middle" x="282" y="-131.8" font-family="Arial" font-size="9.00">extends</text>
</g>
<!-- EpiController&#45;&gt;SessaoRepositorio -->
<g id="edge14" class="edge">
<title>EpiController&#45;&gt;SessaoRepositorio</title>
<path fill="none" stroke="#444444" stroke-dasharray="5,2" d="M482.75,-163.41C482.75,-132.61 482.75,-93 482.75,-93 482.75,-93 787.24,-93 787.24,-93"/>
<polygon fill="#444444" stroke="#444444" points="787.24,-95.45 794.24,-93 787.24,-90.55 787.24,-95.45"/>
<text text-anchor="middle" x="852.5" y="-131.8" font-family="Arial" font-size="9.00">usa</text>
</g>
<!-- EntregaEpiController -->
<g id="node7" class="node">
<title>EntregaEpiController</title>
<path fill="#f7f9fc" stroke="#2f4f6f" d="M12,-163.5C12,-163.5 95,-163.5 95,-163.5 101,-163.5 107,-169.5 107,-175.5 107,-175.5 107,-222.5 107,-222.5 107,-228.5 101,-234.5 95,-234.5 95,-234.5 12,-234.5 12,-234.5 6,-234.5 0,-228.5 0,-222.5 0,-222.5 0,-175.5 0,-175.5 0,-169.5 6,-163.5 12,-163.5"/>
<text text-anchor="middle" x="53.5" y="-222.5" font-family="Arial" font-size="10.00">EntregaEpiController</text>
<polyline fill="none" stroke="#2f4f6f" points="0,-215.5 107,-215.5 "/>
<text text-anchor="start" x="8" y="-203.5" font-family="Arial" font-size="10.00">+ index(): void</text>
<text text-anchor="start" x="8" y="-192.5" font-family="Arial" font-size="10.00">+ criar(): void</text>
<text text-anchor="start" x="8" y="-181.5" font-family="Arial" font-size="10.00">+ salvar(): void</text>
<text text-anchor="start" x="8" y="-170.5" font-family="Arial" font-size="10.00">+ excluir(): void</text>
</g>
<!-- EntregaEpiController&#45;&gt;Controller -->
<g id="edge5" class="edge">
<title>EntregaEpiController&#45;&gt;Controller</title>
<path fill="none" stroke="#444444" d="M35.67,-163.42C35.67,-119.91 35.67,-52 35.67,-52 35.67,-52 273.77,-52 273.77,-52"/>
<polygon fill="none" stroke="#444444" points="273.77,-54.45 280.77,-52 273.77,-49.55 273.77,-54.45"/>
<text text-anchor="middle" x="72" y="-131.8" font-family="Arial" font-size="9.00">extends</text>
</g>
<!-- EntregaEpiController&#45;&gt;SessaoRepositorio -->
<g id="edge15" class="edge">
<title>EntregaEpiController&#45;&gt;SessaoRepositorio</title>
<path fill="none" stroke="#444444" stroke-dasharray="5,2" d="M71.33,-163.28C71.33,-128.55 71.33,-81 71.33,-81 71.33,-81 787.07,-81 787.07,-81"/>
<polygon fill="#444444" stroke="#444444" points="787.07,-83.45 794.07,-81 787.07,-78.55 787.07,-83.45"/>
<text text-anchor="middle" x="693.5" y="-131.8" font-family="Arial" font-size="9.00">usa</text>
</g>
<!-- AcidenteController -->
<g id="node8" class="node">
<title>AcidenteController</title>
<path fill="#f7f9fc" stroke="#2f4f6f" d="M304,-163.5C304,-163.5 377,-163.5 377,-163.5 383,-163.5 389,-169.5 389,-175.5 389,-175.5 389,-222.5 389,-222.5 389,-228.5 383,-234.5 377,-234.5 377,-234.5 304,-234.5 304,-234.5 298,-234.5 292,-228.5 292,-222.5 292,-222.5 292,-175.5 292,-175.5 292,-169.5 298,-163.5 304,-163.5"/>
<text text-anchor="middle" x="340.5" y="-222.5" font-family="Arial" font-size="10.00">AcidenteController</text>
<polyline fill="none" stroke="#2f4f6f" points="292,-215.5 389,-215.5 "/>
<text text-anchor="start" x="300" y="-203.5" font-family="Arial" font-size="10.00">+ index(): void</text>
<text text-anchor="start" x="300" y="-192.5" font-family="Arial" font-size="10.00">+ criar(): void</text>
<text text-anchor="start" x="300" y="-181.5" font-family="Arial" font-size="10.00">+ salvar(): void</text>
<text text-anchor="start" x="300" y="-170.5" font-family="Arial" font-size="10.00">+ excluir(): void</text>
</g>
<!-- AcidenteController&#45;&gt;Controller -->
<g id="edge6" class="edge">
<title>AcidenteController&#45;&gt;Controller</title>
<path fill="none" stroke="#444444" d="M324.33,-163.16C324.33,-163.16 324.33,-84.42 324.33,-84.42"/>
<polygon fill="none" stroke="#444444" points="326.78,-84.42 324.33,-77.42 321.88,-84.42 326.78,-84.42"/>
<text text-anchor="middle" x="212" y="-131.8" font-family="Arial" font-size="9.00">extends</text>
</g>
<!-- AcidenteController&#45;&gt;SessaoRepositorio -->
<g id="edge16" class="edge">
<title>AcidenteController&#45;&gt;SessaoRepositorio</title>
<path fill="none" stroke="#444444" stroke-dasharray="5,2" d="M356.67,-163.29C356.67,-131.17 356.67,-89 356.67,-89 356.67,-89 787.17,-89 787.17,-89"/>
<polygon fill="#444444" stroke="#444444" points="787.17,-91.45 794.17,-89 787.17,-86.55 787.17,-91.45"/>
<text text-anchor="middle" x="799.5" y="-131.8" font-family="Arial" font-size="9.00">usa</text>
</g>
<!-- ExameMedicoController -->
<g id="node9" class="node">
<title>ExameMedicoController</title>
<path fill="#f7f9fc" stroke="#2f4f6f" d="M151,-163.5C151,-163.5 248,-163.5 248,-163.5 254,-163.5 260,-169.5 260,-175.5 260,-175.5 260,-222.5 260,-222.5 260,-228.5 254,-234.5 248,-234.5 248,-234.5 151,-234.5 151,-234.5 145,-234.5 139,-228.5 139,-222.5 139,-222.5 139,-175.5 139,-175.5 139,-169.5 145,-163.5 151,-163.5"/>
<text text-anchor="middle" x="199.5" y="-222.5" font-family="Arial" font-size="10.00">ExameMedicoController</text>
<polyline fill="none" stroke="#2f4f6f" points="139,-215.5 260,-215.5 "/>
<text text-anchor="start" x="147" y="-203.5" font-family="Arial" font-size="10.00">+ index(): void</text>
<text text-anchor="start" x="147" y="-192.5" font-family="Arial" font-size="10.00">+ criar(): void</text>
<text text-anchor="start" x="147" y="-181.5" font-family="Arial" font-size="10.00">+ salvar(): void</text>
<text text-anchor="start" x="147" y="-170.5" font-family="Arial" font-size="10.00">+ excluir(): void</text>
</g>
<!-- ExameMedicoController&#45;&gt;Controller -->
<g id="edge7" class="edge">
<title>ExameMedicoController&#45;&gt;Controller</title>
<path fill="none" stroke="#444444" d="M260.4,-199C275.02,-199 286.5,-199 286.5,-199 286.5,-199 286.5,-84.02 286.5,-84.02"/>
<polygon fill="none" stroke="#444444" points="288.95,-84.02 286.5,-77.02 284.05,-84.02 288.95,-84.02"/>
<text text-anchor="middle" x="142" y="-131.8" font-family="Arial" font-size="9.00">extends</text>
</g>
<!-- ExameMedicoController&#45;&gt;SessaoRepositorio -->
<g id="edge17" class="edge">
<title>ExameMedicoController&#45;&gt;SessaoRepositorio</title>
<path fill="none" stroke="#444444" stroke-dasharray="5,2" d="M199.5,-163.24C199.5,-129.81 199.5,-85 199.5,-85 199.5,-85 787.48,-85 787.48,-85"/>
<polygon fill="#444444" stroke="#444444" points="787.48,-87.45 794.48,-85 787.48,-82.55 787.48,-87.45"/>
<text text-anchor="middle" x="746.5" y="-131.8" font-family="Arial" font-size="9.00">usa</text>
</g>
<!-- TreinamentoController -->
<g id="node10" class="node">
<title>TreinamentoController</title>
<path fill="#f7f9fc" stroke="#2f4f6f" d="M667,-163.5C667,-163.5 756,-163.5 756,-163.5 762,-163.5 768,-169.5 768,-175.5 768,-175.5 768,-222.5 768,-222.5 768,-228.5 762,-234.5 756,-234.5 756,-234.5 667,-234.5 667,-234.5 661,-234.5 655,-228.5 655,-222.5 655,-222.5 655,-175.5 655,-175.5 655,-169.5 661,-163.5 667,-163.5"/>
<text text-anchor="middle" x="711.5" y="-222.5" font-family="Arial" font-size="10.00">TreinamentoController</text>
<polyline fill="none" stroke="#2f4f6f" points="655,-215.5 768,-215.5 "/>
<text text-anchor="start" x="663" y="-203.5" font-family="Arial" font-size="10.00">+ index(): void</text>
<text text-anchor="start" x="663" y="-192.5" font-family="Arial" font-size="10.00">+ criar(): void</text>
<text text-anchor="start" x="663" y="-181.5" font-family="Arial" font-size="10.00">+ salvar(): void</text>
<text text-anchor="start" x="663" y="-170.5" font-family="Arial" font-size="10.00">+ excluir(): void</text>
</g>
<!-- TreinamentoController&#45;&gt;Controller -->
<g id="edge8" class="edge">
<title>TreinamentoController&#45;&gt;Controller</title>
<path fill="none" stroke="#444444" d="M692.67,-163.42C692.67,-119.91 692.67,-52 692.67,-52 692.67,-52 467.24,-52 467.24,-52"/>
<polygon fill="none" stroke="#444444" points="467.24,-49.55 460.24,-52 467.24,-54.45 467.24,-49.55"/>
<text text-anchor="middle" x="422" y="-131.8" font-family="Arial" font-size="9.00">extends</text>
</g>
<!-- TreinamentoController&#45;&gt;SessaoRepositorio -->
<g id="edge18" class="edge">
<title>TreinamentoController&#45;&gt;SessaoRepositorio</title>
<path fill="none" stroke="#444444" stroke-dasharray="5,2" d="M730.33,-163.34C730.33,-135.32 730.33,-101 730.33,-101 730.33,-101 787.39,-101 787.39,-101"/>
<polygon fill="#444444" stroke="#444444" points="787.39,-103.45 794.39,-101 787.39,-98.55 787.39,-103.45"/>
<text text-anchor="middle" x="958.5" y="-131.8" font-family="Arial" font-size="9.00">usa</text>
</g>
<!-- InspecaoController -->
<g id="node11" class="node">
<title>InspecaoController</title>
<path fill="#f7f9fc" stroke="#2f4f6f" d="M1071.5,-163.5C1071.5,-163.5 1145.5,-163.5 1145.5,-163.5 1151.5,-163.5 1157.5,-169.5 1157.5,-175.5 1157.5,-175.5 1157.5,-222.5 1157.5,-222.5 1157.5,-228.5 1151.5,-234.5 1145.5,-234.5 1145.5,-234.5 1071.5,-234.5 1071.5,-234.5 1065.5,-234.5 1059.5,-228.5 1059.5,-222.5 1059.5,-222.5 1059.5,-175.5 1059.5,-175.5 1059.5,-169.5 1065.5,-163.5 1071.5,-163.5"/>
<text text-anchor="middle" x="1108.5" y="-222.5" font-family="Arial" font-size="10.00">InspecaoController</text>
<polyline fill="none" stroke="#2f4f6f" points="1059.5,-215.5 1157.5,-215.5 "/>
<text text-anchor="start" x="1067.5" y="-203.5" font-family="Arial" font-size="10.00">+ index(): void</text>
<text text-anchor="start" x="1067.5" y="-192.5" font-family="Arial" font-size="10.00">+ criar(): void</text>
<text text-anchor="start" x="1067.5" y="-181.5" font-family="Arial" font-size="10.00">+ salvar(): void</text>
<text text-anchor="start" x="1067.5" y="-170.5" font-family="Arial" font-size="10.00">+ excluir(): void</text>
</g>
<!-- InspecaoController&#45;&gt;Controller -->
<g id="edge9" class="edge">
<title>InspecaoController&#45;&gt;Controller</title>
<path fill="none" stroke="#444444" d="M1108.5,-163.46C1108.5,-148.28 1108.5,-134 1108.5,-134 1108.5,-134 444.6,-134 444.6,-134 444.6,-134 444.6,-84.4 444.6,-84.4"/>
<polygon fill="none" stroke="#444444" points="447.05,-84.4 444.6,-77.4 442.15,-84.4 447.05,-84.4"/>
<text text-anchor="middle" x="632" y="-131.8" font-family="Arial" font-size="9.00">extends</text>
</g>
<!-- InspecaoController&#45;&gt;SessaoRepositorio -->
<g id="edge19" class="edge">
<title>InspecaoController&#45;&gt;SessaoRepositorio</title>
<path fill="none" stroke="#444444" stroke-dasharray="5,2" d="M1059.45,-199C1048.47,-199 1040,-199 1040,-199 1040,-199 1040,-111.56 1040,-111.56"/>
<polygon fill="#444444" stroke="#444444" points="1042.45,-111.56 1040,-104.56 1037.55,-111.56 1042.45,-111.56"/>
<text text-anchor="middle" x="1117.5" y="-131.8" font-family="Arial" font-size="9.00">usa</text>
</g>
<!-- RelatorioController -->
<g id="node12" class="node">
<title>RelatorioController</title>
<path fill="#f7f9fc" stroke="#2f4f6f" d="M1201.5,-180C1201.5,-180 1275.5,-180 1275.5,-180 1281.5,-180 1287.5,-186 1287.5,-192 1287.5,-192 1287.5,-206 1287.5,-206 1287.5,-212 1281.5,-218 1275.5,-218 1275.5,-218 1201.5,-218 1201.5,-218 1195.5,-218 1189.5,-212 1189.5,-206 1189.5,-206 1189.5,-192 1189.5,-192 1189.5,-186 1195.5,-180 1201.5,-180"/>
<text text-anchor="middle" x="1238.5" y="-206" font-family="Arial" font-size="10.00">RelatorioController</text>
<polyline fill="none" stroke="#2f4f6f" points="1189.5,-199 1287.5,-199 "/>
<text text-anchor="start" x="1197.5" y="-187" font-family="Arial" font-size="10.00">+ index(): void</text>
</g>
<!-- RelatorioController&#45;&gt;Controller -->
<g id="edge10" class="edge">
<title>RelatorioController&#45;&gt;Controller</title>
<path fill="none" stroke="#444444" d="M1222.17,-179.63C1222.17,-155.96 1222.17,-119 1222.17,-119 1222.17,-119 452.3,-119 452.3,-119 452.3,-119 452.3,-84.26 452.3,-84.26"/>
<polygon fill="none" stroke="#444444" points="454.75,-84.26 452.3,-77.26 449.85,-84.26 454.75,-84.26"/>
<text text-anchor="middle" x="1182" y="-131.8" font-family="Arial" font-size="9.00">extends</text>
</g>
<!-- RelatorioController&#45;&gt;SessaoRepositorio -->
<g id="edge20" class="edge">
<title>RelatorioController&#45;&gt;SessaoRepositorio</title>
<path fill="none" stroke="#444444" stroke-dasharray="5,2" d="M1254.83,-179.78C1254.83,-139.94 1254.83,-52 1254.83,-52 1254.83,-52 1059.55,-52 1059.55,-52"/>
<polygon fill="#444444" stroke="#444444" points="1059.55,-49.55 1052.55,-52 1059.55,-54.45 1059.55,-49.55"/>
<text text-anchor="middle" x="1245.5" y="-131.8" font-family="Arial" font-size="9.00">usa</text>
</g>
</g>
</svg>
